<?xml version="1.0" encoding="UTF-8" standalone="no"?>
<!-- Created with Inkscape (http://www.inkscape.org/) -->

<svg
   xmlns:dc="http://purl.org/dc/elements/1.1/"
   xmlns:cc="http://creativecommons.org/ns#"
   xmlns:rdf="http://www.w3.org/1999/02/22-rdf-syntax-ns#"
   xmlns:svg="http://www.w3.org/2000/svg"
   xmlns="http://www.w3.org/2000/svg"
   xmlns:sodipodi="http://sodipodi.sourceforge.net/DTD/sodipodi-0.dtd"
   xmlns:inkscape="http://www.inkscape.org/namespaces/inkscape"
   width="300"
   height="300"
   viewBox="0 0 300 300"
   version="1.1"
   id="svg8"
   inkscape:version="0.92.2 (5c3e80d, 2017-08-06)"
   sodipodi:docname="breakfast.svg">
  <defs
     id="defs2">
    <inkscape:perspective
       sodipodi:type="inkscape:persp3d"
       inkscape:vp_x="0 : 150 : 1"
       inkscape:vp_y="0 : 1000 : 0"
       inkscape:vp_z="300 : 150 : 1"
       inkscape:persp3d-origin="150 : 100 : 1"
       id="perspective827" />
  </defs>
  <sodipodi:namedview
     id="base"
     pagecolor="#ffffff"
     bordercolor="#666666"
     borderopacity="1.0"
     inkscape:pageopacity="0.0"
     inkscape:pageshadow="2"
     inkscape:zoom="0.24748737"
     inkscape:cx="-439.71236"
     inkscape:cy="1219.546"
     inkscape:document-units="px"
     inkscape:current-layer="layer1"
     showgrid="true"
     inkscape:window-width="1920"
     inkscape:window-height="1017"
     inkscape:window-x="-8"
     inkscape:window-y="-8"
     inkscape:window-maximized="1"
     inkscape:snap-grids="true">
    <inkscape:grid
       type="xygrid"
       id="grid10"
       empcolor="#8989ff"
       empopacity="0.05490196" />
  </sodipodi:namedview>
  <metadata
     id="metadata5">
    <rdf:RDF>
      <cc:Work
         rdf:about="">
        <dc:format>image/svg+xml</dc:format>
        <dc:type
           rdf:resource="http://purl.org/dc/dcmitype/StillImage" />
        <dc:title></dc:title>
      </cc:Work>
    </rdf:RDF>
  </metadata>
  <g
     inkscape:label="Plate"
     inkscape:groupmode="layer"
     id="layer1"
     transform="translate(0,3)"
     style="opacity:1">
    <circle
       id="path15"
       cx="149.45604"
       cy="-147.87709"
       r="134.80319"
       style="fill:#ffffff;fill-opacity:1;stroke:#8d8c8b;stroke-width:2.64583325;stroke-miterlimit:4;stroke-dasharray:none;stroke-opacity:1"
       transform="scale(1,-1)" />
    <g
       id="g1037"
       transform="matrix(0.99723467,-0.42674957,0.06349558,0.52897406,195.29853,51.609128)">
      <path
         id="rect986"
         transform="matrix(0.26458333,0,0,0.26458333,0,-3)"
         d="m -184.32812,383.24219 c -77.63757,183.02995 -234.77618,68.20943 -369.11329,306.11133 l 41.56836,78.92187 c 134.66443,-235.40605 285.84796,-131.92353 368.55469,-307.17187 z"
         style="fill:#a44437;fill-opacity:1;stroke:none;stroke-width:8.4671402;stroke-miterlimit:4;stroke-dasharray:none;stroke-opacity:1"
         inkscape:connector-curvature="0" />
      <path
         id="path991"
         transform="matrix(0.26458333,0,0,0.26458333,0,-3)"
         d="m -169.80664,410.8125 c -77.66237,182.90821 -234.79787,68.1223 -369.12109,306.09766 l 41.56835,78.91992 C -362.70717,560.35249 -211.528,663.80467 -128.80078,488.66992 Z"
         style="fill:#fbd273;fill-opacity:1;stroke:none;stroke-width:8.4671402;stroke-miterlimit:4;stroke-dasharray:none;stroke-opacity:1"
         inkscape:connector-curvature="0" />
      <path
         id="path993"
         d="m -151.31836,445.91602 c -75.85809,191.74189 -233.24311,74.51515 -368.54492,307.18945 l 41.58984,78.96484 c 135.50577,-230.3614 286.90748,-124.58558 368.15039,-307.93945 z"
         style="fill:#a44437;fill-opacity:1;stroke:none;stroke-width:8.4671402;stroke-miterlimit:4;stroke-dasharray:none;stroke-opacity:1"
         inkscape:connector-curvature="0"
         transform="matrix(0.26458333,0,0,0.26458333,0,-3)" />
    </g>
    <g
       transform="matrix(0.9786358,-0.24588123,0.08848857,0.59016046,149.17491,39.462053)"
       id="g1045">
      <path
         inkscape:connector-curvature="0"
         style="fill:#a44437;fill-opacity:1;stroke:none;stroke-width:8.4671402;stroke-miterlimit:4;stroke-dasharray:none;stroke-opacity:1"
         d="m -184.32812,383.24219 c -77.63757,183.02995 -234.77618,68.20943 -369.11329,306.11133 l 41.56836,78.92187 c 134.66443,-235.40605 285.84796,-131.92353 368.55469,-307.17187 z"
         transform="matrix(0.26458333,0,0,0.26458333,0,-3)"
         id="path1039" />
      <path
         inkscape:connector-curvature="0"
         style="fill:#fbd273;fill-opacity:1;stroke:none;stroke-width:8.4671402;stroke-miterlimit:4;stroke-dasharray:none;stroke-opacity:1"
         d="m -169.80664,410.8125 c -77.66237,182.90821 -234.79787,68.1223 -369.12109,306.09766 l 41.56835,78.91992 C -362.70717,560.35249 -211.528,663.80467 -128.80078,488.66992 Z"
         transform="matrix(0.26458333,0,0,0.26458333,0,-3)"
         id="path1041" />
      <path
         inkscape:connector-curvature="0"
         style="fill:#a44437;fill-opacity:1;stroke:none;stroke-width:8.4671402;stroke-miterlimit:4;stroke-dasharray:none;stroke-opacity:1"
         d="m -151.31836,445.91602 c -75.85809,191.74189 -233.24311,74.51515 -368.54492,307.18945 l 41.58984,78.96484 c 135.50577,-230.3614 286.90748,-124.58558 368.15039,-307.93945 z"
         transform="matrix(0.26458333,0,0,0.26458333,0,-3)"
         id="path1043" />
    </g>
  </g>
  <g
     inkscape:groupmode="layer"
     id="layer2"
     inkscape:label="Eggs">
    <g
       id="g984"
       transform="translate(-52.916667,63.5)">
      <path
         sodipodi:type="star"
         style="opacity:1;fill:#ffffff;fill-opacity:1;stroke:#9793b2;stroke-width:4.80217266;stroke-miterlimit:4;stroke-dasharray:none;stroke-opacity:1"
         id="path980"
         sodipodi:sides="8"
         sodipodi:cx="105.83333"
         sodipodi:cy="178.29167"
         sodipodi:r1="73.514183"
         sodipodi:r2="68.368195"
         sodipodi:arg1="0.52807445"
         sodipodi:arg2="0.92077353"
         inkscape:flatsided="false"
         inkscape:rounded="0.4"
         inkscape:randomized="0.08"
         d="m 167.26115,215.3472 c -6.50642,9.03215 -14.30439,7.03115 -22.39459,14.21655 -8.0902,7.1854 -8.96059,18.11824 -19.58135,20.56243 -10.62075,2.44419 -18.13145,-3.41156 -29.533736,-4.52305 -11.402282,-1.11149 -14.286402,5.92667 -23.866974,0.85875 -9.580573,-5.06793 -13.75931,-19.38879 -19.960218,-28.85231 -6.200908,-9.46352 -15.362825,-7.99394 -19.57866,-18.62889 -4.215835,-10.63496 3.558207,-14.0869 5.621975,-25.05036 2.063768,-10.96346 2.391503,-20.85857 7.656588,-30.55485 5.265085,-9.69629 11.845083,-16.02431 20.017104,-23.34039 8.172021,-7.31608 15.676062,-10.4974 26.619678,-13.12029 10.943613,-2.6229 15.741593,4.38601 26.522913,6.94196 10.78132,2.55594 16.99186,-7.11877 26.06212,-0.42398 9.07025,6.6948 7.08161,9.33201 13.73757,18.55649 6.65596,9.22449 9.35947,14.29884 13.09979,25.26723 3.74032,10.9684 2.51521,17.12463 1.96619,28.44007 -0.54902,11.31543 0.11802,20.61849 -6.3884,29.65064 z"
         transform="matrix(0.68536587,0.06596609,-0.06082513,0.6319528,163.04677,41.752172)"
         inkscape:transform-center-x="1.9902343"
         inkscape:transform-center-y="0.6851068" />
      <circle
         style="fill:#ffff46;fill-opacity:1;stroke:#ffe946;stroke-width:3.17499995;stroke-miterlimit:4;stroke-dasharray:none;stroke-opacity:1"
         id="circle982"
         cx="-239.10561"
         cy="-114.29517"
         r="18.993868"
         transform="rotate(-168.28378)" />
    </g>
    <g
       id="g978">
      <path
         inkscape:transform-center-y="0.6851068"
         inkscape:transform-center-x="1.9902343"
         transform="matrix(0.68536587,0.06596609,-0.06082513,0.6319528,163.04677,41.752172)"
         d="m 167.26115,215.3472 c -6.50642,9.03215 -14.30439,7.03115 -22.39459,14.21655 -8.0902,7.1854 -8.96059,18.11824 -19.58135,20.56243 -10.62075,2.44419 -18.13145,-3.41156 -29.533736,-4.52305 -11.402282,-1.11149 -14.286402,5.92667 -23.866974,0.85875 -9.580573,-5.06793 -13.75931,-19.38879 -19.960218,-28.85231 -6.200908,-9.46352 -15.362825,-7.99394 -19.57866,-18.62889 -4.215835,-10.63496 3.558207,-14.0869 5.621975,-25.05036 2.063768,-10.96346 2.391503,-20.85857 7.656588,-30.55485 5.265085,-9.69629 11.845083,-16.02431 20.017104,-23.34039 8.172021,-7.31608 15.676062,-10.4974 26.619678,-13.12029 10.943613,-2.6229 15.741593,4.38601 26.522913,6.94196 10.78132,2.55594 16.99186,-7.11877 26.06212,-0.42398 9.07025,6.6948 7.08161,9.33201 13.73757,18.55649 6.65596,9.22449 9.35947,14.29884 13.09979,25.26723 3.74032,10.9684 2.51521,17.12463 1.96619,28.44007 -0.54902,11.31543 0.11802,20.61849 -6.3884,29.65064 z"
         inkscape:randomized="0.08"
         inkscape:rounded="0.4"
         inkscape:flatsided="false"
         sodipodi:arg2="0.92077353"
         sodipodi:arg1="0.52807445"
         sodipodi:r2="68.368195"
         sodipodi:r1="73.514183"
         sodipodi:cy="178.29167"
         sodipodi:cx="105.83333"
         sodipodi:sides="8"
         id="path846-3-1"
         style="opacity:1;fill:#ffffff;fill-opacity:1;stroke:#9793b2;stroke-width:4.80217282;stroke-miterlimit:4;stroke-dasharray:none;stroke-opacity:1"
         sodipodi:type="star" />
      <circle
         transform="rotate(-168.28378)"
         r="18.993868"
         cy="-114.29517"
         cx="-239.10561"
         id="path878-2-4"
         style="fill:#ffff46;fill-opacity:1;stroke:#ffe946;stroke-width:3.17499998;stroke-miterlimit:4;stroke-dasharray:none;stroke-opacity:1" />
    </g>
  </g>
  <g
     inkscape:groupmode="layer"
     id="layer3"
     inkscape:label="Bacon" />
  <g
     inkscape:groupmode="layer"
     id="layer4"
     inkscape:label="Toast">
    <path
       sodipodi:type="star"
       style="opacity:1;fill:#ffe081;fill-opacity:1;stroke:#836546;stroke-width:5.45041656;stroke-miterlimit:4;stroke-dasharray:none;stroke-opacity:1"
       id="path913-0"
       sodipodi:sides="4"
       sodipodi:cx="153.45833"
       sodipodi:cy="90.625008"
       sodipodi:r1="73.704391"
       sodipodi:r2="66.304398"
       sodipodi:arg1="-1.2036225"
       sodipodi:arg2="-0.41822434"
       inkscape:flatsided="false"
       inkscape:rounded="0.34"
       inkscape:randomized="0"
       d="m 179.91666,21.833337 c 17.1405,6.5925 26.67283,25.08114 34.13139,41.862904 7.45856,16.781763 14.79445,36.246602 8.20195,53.387099 -6.5925,17.1405 -25.08114,26.67283 -41.8629,34.13139 -16.78177,7.45856 -36.24661,14.79445 -53.38711,8.20195 C 109.8595,152.82418 100.32717,134.33554 92.868604,117.55377 85.410042,100.77201 78.074159,81.307172 84.666658,64.166674 91.259157,47.026175 109.7478,37.493845 126.52956,30.035284 c 16.78177,-7.458562 36.2466,-14.794446 53.3871,-8.201947 z"
       inkscape:transform-center-x="0.33301265"
       inkscape:transform-center-y="1.3781564"
       transform="matrix(0.34510258,0.51084692,-0.56893353,0.41619328,146.12368,-44.413426)" />
    <path
       transform="matrix(0.34510258,0.51084692,-0.56893353,0.41619328,173.56048,-37.087192)"
       inkscape:transform-center-y="1.3781562"
       inkscape:transform-center-x="0.33301311"
       d="m 179.91666,21.833337 c 17.1405,6.5925 26.67283,25.08114 34.13139,41.862904 7.45856,16.781763 14.79445,36.246602 8.20195,53.387099 -6.5925,17.1405 -25.08114,26.67283 -41.8629,34.13139 -16.78177,7.45856 -36.24661,14.79445 -53.38711,8.20195 C 109.8595,152.82418 100.32717,134.33554 92.868604,117.55377 85.410042,100.77201 78.074159,81.307172 84.666658,64.166674 91.259157,47.026175 109.7478,37.493845 126.52956,30.035284 c 16.78177,-7.458562 36.2466,-14.794446 53.3871,-8.201947 z"
       inkscape:randomized="0"
       inkscape:rounded="0.34"
       inkscape:flatsided="false"
       sodipodi:arg2="-0.41822434"
       sodipodi:arg1="-1.2036225"
       sodipodi:r2="66.304398"
       sodipodi:r1="73.704391"
       sodipodi:cy="90.625008"
       sodipodi:cx="153.45833"
       sodipodi:sides="4"
       id="path932"
       style="opacity:1;fill:#ffe081;fill-opacity:1;stroke:#836546;stroke-width:5.45041656;stroke-miterlimit:4;stroke-dasharray:none;stroke-opacity:1"
       sodipodi:type="star" />
  </g>
  <g
     inkscape:groupmode="layer"
     id="layer5"
     inkscape:label="Butter">
    <path
       transform="matrix(-0.13920149,0.02302812,-0.02893894,-0.17923311,200.3015,93.395116)"
       inkscape:transform-center-y="-0.23227481"
       inkscape:transform-center-x="0.24993272"
       d="m 179.91666,21.833337 c 17.1405,6.5925 26.67283,25.08114 34.13139,41.862904 7.45856,16.781763 14.79445,36.246602 8.20195,53.387099 -6.5925,17.1405 -25.08114,26.67283 -41.8629,34.13139 -16.78177,7.45856 -36.24661,14.79445 -53.38711,8.20195 C 109.8595,152.82418 100.32717,134.33554 92.868604,117.55377 85.410042,100.77201 78.074159,81.307172 84.666658,64.166674 91.259157,47.026175 109.7478,37.493845 126.52956,30.035284 c 16.78177,-7.458562 36.2466,-14.794446 53.3871,-8.201947 z"
       inkscape:randomized="0"
       inkscape:rounded="0.34"
       inkscape:flatsided="false"
       sodipodi:arg2="-0.41822434"
       sodipodi:arg1="-1.2036225"
       sodipodi:r2="66.304398"
       sodipodi:r1="73.704391"
       sodipodi:cy="90.625008"
       sodipodi:cx="153.45833"
       sodipodi:sides="4"
       id="path932-1"
       style="opacity:1;fill:#f4ff50;fill-opacity:1;stroke:none;stroke-width:5.45041656;stroke-miterlimit:4;stroke-dasharray:none;stroke-opacity:1"
       sodipodi:type="star" />
  </g>
</svg>
